<svg width="40" height="40" viewBox="0 0 40 40" fill="none" xmlns="http://www.w3.org/2000/svg">
<path d="M20.0001 14C20.5524 14 21.0001 14.4477 21.0001 15V21C21.0001 21.5523 20.5524 22 20.0001 22C19.4478 22 19.0001 21.5523 19.0001 21V15C19.0001 14.4477 19.4478 14 20.0001 14Z" fill="#FFFBF3"/>
<path d="M21.0001 25C21.0001 25.5523 20.5524 26 20.0001 26C19.4478 26 19.0001 25.5523 19.0001 25C19.0001 24.4477 19.4478 24 20.0001 24C20.5524 24 21.0001 24.4477 21.0001 25Z" fill="#FFFBF3"/>
<path fill-rule="evenodd" clip-rule="evenodd" d="M31.5106 24.006L23.4674 10.0183C21.9293 7.34348 18.0701 7.34352 16.5322 10.0184L8.48946 24.0061C6.95618 26.6728 8.88108 29.9999 11.9571 29.9999H28.043C31.1191 29.9999 33.044 26.6727 31.5106 24.006ZM18.266 11.0153C19.035 9.67787 20.9646 9.67784 21.7336 11.0152L29.7768 25.003C30.5435 26.3363 29.5811 27.9999 28.043 27.9999H11.9571C10.4191 27.9999 9.45665 26.3364 10.2233 25.003L18.266 11.0153Z" fill="#FFFBF3"/>
</svg>
